<svg class="socialIcon_2tIzw icon_q2ZYd" viewBox="0 0 20 20" version="1.1" xmlns="http://www.w3.org/2000/svg" xmlns:xlink="http://www.w3.org/1999/xlink" width="20"  height="20" ><defs><path d="M13.3333333,9.33333333 L13.3333333,7.73333333 C13.3333333,7.04 13.4933333,6.66666667 14.6133333,6.66666667 L16,6.66666667 L16,4 L13.8666667,4 C11.2,4 10.1333333,5.76 10.1333333,7.73333333 L10.1333333,9.33333333 L8,9.33333333 L8,12 L10.1333333,12 L10.1333333,20 L13.3333333,20 L13.3333333,12 L15.68,12 L16,9.33333333 L13.3333333,9.33333333 Z" id="path-Facebook"></path><path d="M13.3333333,9.33333333 L13.3333333,7.73333333 C13.3333333,7.04 13.4933333,6.66666667 14.6133333,6.66666667 L16,6.66666667 L16,4 L13.8666667,4 C11.2,4 10.1333333,5.76 10.1333333,7.73333333 L10.1333333,9.33333333 L8,9.33333333 L8,12 L10.1333333,12 L10.1333333,20 L13.3333333,20 L13.3333333,12 L15.68,12 L16,9.33333333 L13.3333333,9.33333333 Z" id="path-Facebook"></path><path d="M13.3333333,9.33333333 L13.3333333,7.73333333 C13.3333333,7.04 13.4933333,6.66666667 14.6133333,6.66666667 L16,6.66666667 L16,4 L13.8666667,4 C11.2,4 10.1333333,5.76 10.1333333,7.73333333 L10.1333333,9.33333333 L8,9.33333333 L8,12 L10.1333333,12 L10.1333333,20 L13.3333333,20 L13.3333333,12 L15.68,12 L16,9.33333333 L13.3333333,9.33333333 Z" id="path-Facebook"></path></defs><g id="logos/social/facebook" stroke="none" stroke-width="1" fill="none" fill-rule="evenodd"><g id="facebook" fill="none"><rect id="bounds" x="0" y="0" width="24" height="24" fill="none"></rect><mask id="mask-2" fill="#FFFFFF"><use xlink:href="#path-Facebook" fill="#FFFFFF"></use></mask><use class="black_3d_RE" id="Mask" fill="#1D252C" xlink:href="#path-Facebook"></use></g></g></svg>