<svg width="32" height="32" viewBox="0 0 32 32" fill="none" xmlns="http://www.w3.org/2000/svg">
<path d="M30 4.1001H8C7.76131 4.1001 7.53239 4.19492 7.3636 4.3637C7.19482 4.53248 7.1 4.7614 7.1 5.0001C7.1 5.23879 7.19482 5.46771 7.3636 5.63649C7.53239 5.80528 7.76131 5.9001 8 5.9001H30C30.0258 5.90235 30.0499 5.91361 30.0682 5.9319C30.0865 5.95019 30.0977 5.97433 30.1 6.0001V22.0001C30.0977 22.0259 30.0865 22.05 30.0682 22.0683C30.0499 22.0866 30.0258 22.0978 30 22.1001H2C1.97424 22.0978 1.95009 22.0866 1.9318 22.0683C1.91351 22.05 1.90225 22.0259 1.9 22.0001V6.0001C1.90225 5.97433 1.91351 5.95019 1.9318 5.9319C1.95009 5.91361 1.97424 5.90235 2 5.9001H4C4.2387 5.9001 4.46761 5.80528 4.6364 5.63649C4.80518 5.46771 4.9 5.23879 4.9 5.0001C4.9 4.7614 4.80518 4.53248 4.6364 4.3637C4.46761 4.19492 4.2387 4.1001 4 4.1001H2C1.49609 4.1001 1.01282 4.30028 0.656497 4.65659C0.300178 5.01291 0.1 5.49619 0.1 6.0001V22.0001C0.1 22.504 0.300178 22.9873 0.656497 23.3436C1.01282 23.6999 1.49609 23.9001 2 23.9001H15.1V26.1001H7C6.76131 26.1001 6.53239 26.1949 6.3636 26.3637C6.19482 26.5325 6.1 26.7614 6.1 27.0001C6.1 27.2388 6.19482 27.4677 6.3636 27.6365C6.53239 27.8053 6.76131 27.9001 7 27.9001H25C25.2387 27.9001 25.4676 27.8053 25.6364 27.6365C25.8052 27.4677 25.9 27.2388 25.9 27.0001C25.9 26.7614 25.8052 26.5325 25.6364 26.3637C25.4676 26.1949 25.2387 26.1001 25 26.1001H16.9V23.9001H30C30.5039 23.9001 30.9872 23.6999 31.3435 23.3436C31.6998 22.9873 31.9 22.504 31.9 22.0001V6.0001C31.9 5.49619 31.6998 5.01291 31.3435 4.65659C30.9872 4.30028 30.5039 4.1001 30 4.1001Z" fill="#1D252C"/>
</svg>
