<svg width="32" height="32" viewBox="0 0 32 32" fill="none" xmlns="http://www.w3.org/2000/svg">
<g clip-path="url(#clip0_46_3599)">
<path fill-rule="evenodd" clip-rule="evenodd" d="M27.1055 4.66125C24.3756 1.92502 20.7409 0.2791 16.8837 0.0323829C13.0264 -0.214334 9.21172 0.955112 6.15547 3.32125V1.12125C6.15547 0.882558 6.06065 0.653639 5.89187 0.484856C5.72308 0.316074 5.49416 0.221253 5.25547 0.221253C5.01677 0.221253 4.78786 0.316074 4.61907 0.484856C4.45029 0.653639 4.35547 0.882558 4.35547 1.12125V5.29125C4.35762 5.41117 4.38133 5.52973 4.42547 5.64125C4.47089 5.75097 4.53905 5.84981 4.62547 5.93125C4.70729 6.01477 4.80622 6.07959 4.91547 6.12125C5.01905 6.16838 5.13168 6.19227 5.24547 6.19125H9.42547C9.66416 6.19125 9.89308 6.09643 10.0619 5.92765C10.2306 5.75887 10.3255 5.52995 10.3255 5.29125C10.3255 5.05256 10.2306 4.82364 10.0619 4.65486C9.89308 4.48607 9.66416 4.39125 9.42547 4.39125H7.73547C10.3559 2.53361 13.5321 1.62637 16.7384 1.81967C19.9447 2.01297 22.9889 3.29523 25.3672 5.45424C27.7455 7.61326 29.3153 10.5196 29.8169 13.6923C30.3185 16.865 29.7218 20.1139 28.1255 22.9013C28.0664 23.0037 28.028 23.1168 28.0126 23.234C27.9972 23.3512 28.0051 23.4704 28.0357 23.5846C28.0664 23.6988 28.1192 23.8059 28.1912 23.8997C28.2633 23.9935 28.353 24.0722 28.4555 24.1313C28.5579 24.1903 28.671 24.2287 28.7882 24.2441C28.9055 24.2595 29.0246 24.2516 29.1388 24.221C29.253 24.1904 29.3601 24.1375 29.4539 24.0655C29.5477 23.9935 29.6264 23.9037 29.6855 23.8013C31.4092 20.7682 32.0903 17.2534 31.6242 13.796C31.1582 10.3387 29.5708 7.12965 27.1055 4.66125ZM27.1055 25.9012C27.0237 25.8177 26.9247 25.7529 26.8155 25.7112C26.7084 25.6642 26.5925 25.6404 26.4755 25.6412H22.3055C22.0668 25.6412 21.8379 25.7361 21.6691 25.9049C21.5003 26.0736 21.4055 26.3026 21.4055 26.5412C21.4055 26.7799 21.5003 27.0089 21.6691 27.1776C21.8379 27.3464 22.0668 27.4412 22.3055 27.4412H23.9855C21.3909 29.2856 18.2483 30.197 15.0695 30.027C11.8908 29.857 8.86328 28.6156 6.48022 26.5051C4.09717 24.3946 2.49901 21.5392 1.94613 18.4043C1.39324 15.2694 1.9182 12.0397 3.43549 9.24125C3.5143 9.0371 3.51604 8.81123 3.44038 8.6059C3.36471 8.40056 3.21682 8.22983 3.02438 8.12564C2.83194 8.02145 2.60813 7.99095 2.39483 8.03984C2.18153 8.08872 1.99334 8.21365 1.86549 8.39125C0.158837 11.5965 -0.399244 15.2894 0.28404 18.8558C0.967324 22.4222 2.8508 25.6473 5.62129 27.9948C8.39178 30.3423 11.8823 31.6708 15.5126 31.7593C19.1428 31.8477 22.6939 30.691 25.5755 28.4812V30.6812C25.5755 30.9199 25.6703 31.1489 25.8391 31.3176C26.0079 31.4864 26.2368 31.5812 26.4755 31.5812C26.7142 31.5812 26.9431 31.4864 27.1119 31.3176C27.2807 31.1489 27.3755 30.9199 27.3755 30.6812V26.5112C27.3733 26.3913 27.3496 26.2728 27.3055 26.1612C27.2566 26.0623 27.1886 25.9739 27.1055 25.9012ZM10.7194 10.0484C10.8092 9.97663 10.9207 9.93751 11.0357 9.93751H24.1251C24.4047 9.93751 24.6313 10.1642 24.6313 10.4438V21.2269C24.6313 21.5065 24.4047 21.7331 24.1251 21.7331H11.0357C10.9207 21.7331 10.8092 21.694 10.7194 21.6222L6.86631 18.5397C6.74622 18.4436 6.67632 18.2982 6.67632 18.1444V13.5263C6.67632 13.3725 6.74622 13.227 6.86631 13.1309L10.7194 10.0484ZM11.5913 11.7953L8.49753 13.875V17.8125L11.5913 19.9516H23.0312V11.7953H11.5913ZM12.625 17.25C13.2463 17.25 13.75 16.7463 13.75 16.125C13.75 15.5037 13.2463 15 12.625 15C12.0037 15 11.5 15.5037 11.5 16.125C11.5 16.7463 12.0037 17.25 12.625 17.25Z" fill="#1D252C"/>
</g>
<defs>
<clipPath id="clip0_46_3599">
<rect width="32" height="32" fill="white"/>
</clipPath>
</defs>
</svg>
