<svg width="32" height="32" viewBox="0 0 32 32" fill="none" xmlns="http://www.w3.org/2000/svg">
<path fill-rule="evenodd" clip-rule="evenodd" d="M10.6364 8.47634C10.4676 8.64512 10.2387 8.73994 9.99998 8.73994C9.76128 8.73994 9.53236 8.64512 9.36358 8.47634C9.1948 8.30755 9.09998 8.07864 9.09998 7.83994V3.83994C9.09998 3.60125 9.1948 3.37233 9.36358 3.20355C9.53236 3.03476 9.76128 2.93994 9.99998 2.93994C10.2387 2.93994 10.4676 3.03476 10.6364 3.20355C10.8052 3.37233 10.9 3.60125 10.9 3.83994V7.83994C10.9 8.07864 10.8052 8.30755 10.6364 8.47634ZM22.6364 8.47634C22.4676 8.64512 22.2387 8.73994 22 8.73994C21.8818 8.73994 21.7648 8.71666 21.6556 8.67143C21.5464 8.6262 21.4472 8.55991 21.3636 8.47634C21.28 8.39276 21.2137 8.29355 21.1685 8.18436C21.1233 8.07516 21.1 7.95813 21.1 7.83994V3.83994C21.1 3.60125 21.1948 3.37233 21.3636 3.20355C21.5324 3.03476 21.7613 2.93994 22 2.93994C22.2387 2.93994 22.4676 3.03476 22.6364 3.20355C22.8052 3.37233 22.9 3.60125 22.9 3.83994V7.83994C22.9 8.07864 22.8052 8.30755 22.6364 8.47634ZM28 4.93994H26C25.7613 4.93994 25.5324 5.03476 25.3636 5.20355C25.1948 5.37233 25.1 5.60125 25.1 5.83994C25.1 6.07864 25.1948 6.30755 25.3636 6.47634C25.5324 6.64512 25.7613 6.73994 26 6.73994H28C28.5569 6.73994 29.0911 6.96119 29.4849 7.35502C29.8787 7.74884 30.1 8.28299 30.1 8.83994V24.8399C30.1 25.3969 29.8787 25.931 29.4849 26.3249C29.0911 26.7187 28.5569 26.9399 28 26.9399H3.99998C3.44302 26.9399 2.90888 26.7187 2.51505 26.3249C2.12122 25.931 1.89998 25.3969 1.89998 24.8399V8.83994C1.89998 8.28299 2.12122 7.74884 2.51505 7.35502C2.90888 6.96119 3.44302 6.73994 3.99998 6.73994H5.99998C6.23867 6.73994 6.46759 6.64512 6.63637 6.47634C6.80515 6.30755 6.89998 6.07864 6.89998 5.83994C6.89998 5.60125 6.80515 5.37233 6.63637 5.20355C6.46759 5.03476 6.23867 4.93994 5.99998 4.93994H3.99998C2.96644 4.94258 1.976 5.35432 1.24518 6.08514C0.514355 6.81596 0.102616 7.80641 0.0999756 8.83994V24.8399C0.102616 25.8735 0.514355 26.8639 1.24518 27.5947C1.976 28.3256 2.96644 28.7373 3.99998 28.7399H28C29.0335 28.7373 30.024 28.3256 30.7548 27.5947C31.4856 26.8639 31.8973 25.8735 31.9 24.8399V8.83994C31.8973 7.80641 31.4856 6.81596 30.7548 6.08514C30.024 5.35432 29.0335 4.94258 28 4.93994ZM18 6.73994H14C13.7613 6.73994 13.5324 6.64512 13.3636 6.47634C13.1948 6.30755 13.1 6.07864 13.1 5.83994C13.1 5.60125 13.1948 5.37233 13.3636 5.20355C13.5324 5.03476 13.7613 4.93994 14 4.93994H18C18.2387 4.93994 18.4676 5.03476 18.6364 5.20355C18.8052 5.37233 18.9 5.60125 18.9 5.83994C18.9 6.07864 18.8052 6.30755 18.6364 6.47634C18.4676 6.64512 18.2387 6.73994 18 6.73994Z" fill="#1D252C"/>
<path d="M10.0429 15.3346C9.99178 15.4941 9.98624 15.6648 10.0269 15.8273C10.0675 15.9899 10.1527 16.1378 10.2729 16.2546L12.5629 18.4946L12.0229 21.6446C11.9935 21.8103 12.0118 21.9809 12.0755 22.1367C12.1392 22.2924 12.2458 22.4269 12.3829 22.5246C12.5238 22.6341 12.6942 22.6992 12.8722 22.7117C13.0503 22.7242 13.228 22.6834 13.3829 22.5946L16.2129 21.1046L19.0429 22.5946C19.1691 22.6614 19.31 22.6958 19.4529 22.6946C19.6431 22.6953 19.8286 22.6358 19.9829 22.5246C20.1199 22.4269 20.2265 22.2924 20.2902 22.1367C20.354 21.9809 20.3722 21.8103 20.3429 21.6446L19.8029 18.4946L22.0929 16.2546C22.2155 16.1387 22.3027 15.9904 22.3443 15.8269C22.3858 15.6634 22.3801 15.4915 22.3277 15.3311C22.2753 15.1708 22.1784 15.0286 22.0483 14.9213C21.9182 14.8139 21.7602 14.7457 21.5929 14.7246L18.4329 14.2646L16.9629 11.3946C16.8792 11.2559 16.7612 11.1411 16.6201 11.0615C16.4791 10.9818 16.3199 10.9399 16.1579 10.9399C15.9959 10.9399 15.8367 10.9818 15.6956 11.0615C15.5546 11.1411 15.4365 11.2559 15.3529 11.3946L13.9329 14.2646L10.7729 14.7246C10.6072 14.7501 10.4516 14.8204 10.3229 14.9279C10.1943 15.0354 10.0974 15.176 10.0429 15.3346V15.3346ZM14.6629 15.9746C14.8077 15.955 14.9456 15.9001 15.0642 15.8146C15.1828 15.7292 15.2785 15.6158 15.3429 15.4846L16.1629 13.7946L16.9729 15.4546C17.0373 15.5858 17.133 15.6992 17.2516 15.7846C17.3702 15.8701 17.508 15.925 17.6529 15.9446L19.4829 16.2146L18.1629 17.5046C18.0563 17.6035 17.9765 17.7279 17.931 17.8661C17.8856 18.0042 17.8759 18.1517 17.9029 18.2946L18.2129 20.1146L16.5729 19.2646C16.4464 19.1927 16.3034 19.1549 16.1579 19.1549C16.0124 19.1549 15.8694 19.1927 15.7429 19.2646L14.1129 20.1446L14.4229 18.3246C14.4493 18.1825 14.4403 18.0361 14.3967 17.8983C14.3531 17.7605 14.2762 17.6356 14.1729 17.5346L12.8429 16.2446L14.6629 15.9746Z" fill="#1D252C"/>
</svg>
