<svg class="socialIcon_2tIzw icon_q2ZYd" viewBox="0 0 20 20" version="1.1" xmlns="http://www.w3.org/2000/svg" xmlns:xlink="http://www.w3.org/1999/xlink" width="20"  height="20" ><defs><path d="M7.32,5.63043478 C7.32,6.53108696 6.58,7.26086957 5.66666667,7.26086957 C4.75333333,7.26086957 4.01333333,6.53108696 4.01333333,5.63043478 C4.01333333,4.73043478 4.75333333,4 5.66666667,4 C6.58,4 7.32,4.73043478 7.32,5.63043478 Z M7.33333333,8.56521739 L4,8.56521739 L4,19 L7.33333333,19 L7.33333333,8.56521739 Z M12.6546667,8.56521739 L9.34266667,8.56521739 L9.34266667,19 L12.6553333,19 L12.6553333,13.5223913 C12.6553333,10.4767391 16.6746667,10.2276087 16.6746667,13.5223913 L16.6746667,19 L20,19 L20,12.3928261 C20,7.25369565 14.052,7.44086957 12.6546667,9.97065217 L12.6546667,8.56521739 Z" id="path-Linkedin"></path><path d="M7.32,5.63043478 C7.32,6.53108696 6.58,7.26086957 5.66666667,7.26086957 C4.75333333,7.26086957 4.01333333,6.53108696 4.01333333,5.63043478 C4.01333333,4.73043478 4.75333333,4 5.66666667,4 C6.58,4 7.32,4.73043478 7.32,5.63043478 Z M7.33333333,8.56521739 L4,8.56521739 L4,19 L7.33333333,19 L7.33333333,8.56521739 Z M12.6546667,8.56521739 L9.34266667,8.56521739 L9.34266667,19 L12.6553333,19 L12.6553333,13.5223913 C12.6553333,10.4767391 16.6746667,10.2276087 16.6746667,13.5223913 L16.6746667,19 L20,19 L20,12.3928261 C20,7.25369565 14.052,7.44086957 12.6546667,9.97065217 L12.6546667,8.56521739 Z" id="path-Linkedin"></path><path d="M7.32,5.63043478 C7.32,6.53108696 6.58,7.26086957 5.66666667,7.26086957 C4.75333333,7.26086957 4.01333333,6.53108696 4.01333333,5.63043478 C4.01333333,4.73043478 4.75333333,4 5.66666667,4 C6.58,4 7.32,4.73043478 7.32,5.63043478 Z M7.33333333,8.56521739 L4,8.56521739 L4,19 L7.33333333,19 L7.33333333,8.56521739 Z M12.6546667,8.56521739 L9.34266667,8.56521739 L9.34266667,19 L12.6553333,19 L12.6553333,13.5223913 C12.6553333,10.4767391 16.6746667,10.2276087 16.6746667,13.5223913 L16.6746667,19 L20,19 L20,12.3928261 C20,7.25369565 14.052,7.44086957 12.6546667,9.97065217 L12.6546667,8.56521739 Z" id="path-Linkedin"></path></defs><g id="logos/social/linkedin" stroke="none" stroke-width="1" fill="none" fill-rule="evenodd"><g id="linkedIn" fill="none"><rect id="bounds" x="0" y="0" width="24" height="24" fill="none"></rect><mask id="mask-2" fill="#FFFFFF"><use xlink:href="#path-Linkedin" fill="#FFFFFF"></use></mask><use class="black_3d_RE" id="Mask" fill="#1D252C" xlink:href="#path-Linkedin"></use></g></g></svg>