<svg width="32" height="32" viewBox="0 0 32 32" fill="none" xmlns="http://www.w3.org/2000/svg">
<path d="M23.0005 0.0999756C23.7694 0.100079 24.5065 0.405883 25.0503 0.949585C25.5941 1.49344 25.8999 2.23124 25.8999 3.00037V29.0004C25.8998 29.7694 25.5941 30.5064 25.0503 31.0502C24.5065 31.5939 23.7695 31.8997 23.0005 31.8998H9.00049C8.23136 31.8998 7.49356 31.594 6.94971 31.0502C6.406 30.5064 6.1002 29.7693 6.1001 29.0004V12.0004C6.1001 11.7617 6.19499 11.5324 6.36377 11.3636C6.53255 11.1949 6.76179 11.1 7.00049 11.1C7.239 11.1001 7.46755 11.195 7.63623 11.3636C7.80501 11.5324 7.8999 11.7617 7.8999 12.0004V24.1H24.1001V3.00037C24.1001 2.70863 23.9841 2.42834 23.7778 2.22205C23.5716 2.01591 23.292 1.89988 23.0005 1.89978H9.00049C8.70875 1.89978 8.42846 2.01576 8.22217 2.22205C8.01588 2.42834 7.8999 2.70863 7.8999 3.00037V8.00037C7.8998 8.23892 7.80492 8.46742 7.63623 8.63611C7.46754 8.8048 7.23904 8.89968 7.00049 8.89978C6.76179 8.89978 6.53255 8.80489 6.36377 8.63611C6.19514 8.46743 6.1002 8.23887 6.1001 8.00037V3.00037C6.1001 2.23124 6.40585 1.49344 6.94971 0.949585C7.49356 0.405729 8.23136 0.0999756 9.00049 0.0999756H23.0005ZM7.8999 25.8998V29.0004C7.90001 29.2919 8.01603 29.5715 8.22217 29.7777C8.42846 29.984 8.70875 30.1 9.00049 30.1H23.0005C23.2921 30.0999 23.5716 29.9839 23.7778 29.7777C23.984 29.5715 24.1 29.292 24.1001 29.0004V25.8998H7.8999ZM16.8901 27.1C17.1288 27.1 17.3581 27.1949 17.5269 27.3636C17.6955 27.5324 17.7905 27.7618 17.7905 28.0004C17.7904 28.2388 17.6954 28.4674 17.5269 28.6361C17.3581 28.8049 17.1288 28.8998 16.8901 28.8998H15.1099C14.8713 28.8997 14.6428 28.8048 14.4741 28.6361C14.3054 28.4674 14.2106 28.2389 14.2104 28.0004C14.2104 27.7617 14.3053 27.5324 14.4741 27.3636C14.6428 27.195 14.8713 27.1 15.1099 27.1H16.8901Z" fill="black"/>
</svg>
