<svg width="32" height="32" viewBox="0 0 32 32" fill="none" xmlns="http://www.w3.org/2000/svg">
<path d="M6.39999 29.9C5.19999 29.9 4.09999 29.4 3.29999 28.6C1.59999 26.9 1.59999 24.1 3.29999 22.4L9.89999 15.9C10.3 15.6 10.8 15.6 11.2 15.9C11.5 16.3 11.5 16.8 11.2 17.2L4.59999 23.7C4.09999 24.2 3.79999 24.8 3.79999 25.5C3.79999 26.2 4.09999 26.8 4.59999 27.3C5.59999 28.3 7.29999 28.3 8.29999 27.3L17 18.6C17.2 18.4 17.6 18.3 18 18.4C20.8 19.5 24 18.8 26.1 16.7C28 14.8 28.7 12 28.1 9.50004L22.8 14.8C22.5 15.1 22.1 15.1 21.8 15L19 13.6C18.8 13.5 18.7 13.4 18.6 13.2L17 10.3C16.8 10 16.9 9.50004 17.2 9.30004L22.4 4.00004C19.8 3.40004 17.1 4.10004 15.2 6.00004C12.2 9.00004 12.2 13.8 15.2 16.7C15.6 17.1 15.6 17.6 15.2 18C14.8 18.4 14.3 18.4 13.9 18C12.1 16.2 11.1 13.9 11.1 11.4C11.1 8.90004 12.1 6.50004 13.9 4.80004C16.7 2.00004 20.9 1.30004 24.4 2.90004C24.7 3.00004 24.9 3.30004 24.9 3.60004C25 3.90004 24.9 4.20004 24.7 4.40004L18.9 10.2L19.9 12.2L21.9 13.2L27.7 7.40004C27.9 7.00004 28.2 7.00004 28.4 7.00004C28.7 7.10004 28.9 7.20004 29.1 7.50004C30.7 11 29.9 15.3 27.2 18C24.7 20.5 21.1 21.4 17.8 20.3L9.49999 28.6C8.69999 29.5 7.59999 29.9 6.39999 29.9Z" fill="#1D252C"/>
</svg>
