<svg class="socialIcon_2tIzw icon_q2ZYd" viewBox="0 0 20 20" version="1.1" xmlns="http://www.w3.org/2000/svg" xmlns:xlink="http://www.w3.org/1999/xlink" width="20"  height="20" ><defs><path d="M17.0766667,6.12275013 C14.674,5.95875013 9.32266667,5.95941679 6.92333333,6.12275013 C4.32533333,6.30008346 4.01933333,7.86941679 4,12.0000835 C4.01933333,16.1234168 4.32266667,17.6994168 6.92333333,17.8774168 C9.32333333,18.0407501 14.674,18.0414168 17.0766667,17.8774168 C19.6746667,17.7000835 19.9806667,16.1307501 20,12.0000835 C19.9806667,7.87675013 19.6773333,6.30075013 17.0766667,6.12275013 Z M10,14.6667501 L10,9.33341679 L15.3333333,11.9954168 L10,14.6667501 L10,14.6667501 Z" id="path-Youtube"></path><path d="M17.0766667,6.12275013 C14.674,5.95875013 9.32266667,5.95941679 6.92333333,6.12275013 C4.32533333,6.30008346 4.01933333,7.86941679 4,12.0000835 C4.01933333,16.1234168 4.32266667,17.6994168 6.92333333,17.8774168 C9.32333333,18.0407501 14.674,18.0414168 17.0766667,17.8774168 C19.6746667,17.7000835 19.9806667,16.1307501 20,12.0000835 C19.9806667,7.87675013 19.6773333,6.30075013 17.0766667,6.12275013 Z M10,14.6667501 L10,9.33341679 L15.3333333,11.9954168 L10,14.6667501 L10,14.6667501 Z" id="path-Youtube"></path><path d="M17.0766667,6.12275013 C14.674,5.95875013 9.32266667,5.95941679 6.92333333,6.12275013 C4.32533333,6.30008346 4.01933333,7.86941679 4,12.0000835 C4.01933333,16.1234168 4.32266667,17.6994168 6.92333333,17.8774168 C9.32333333,18.0407501 14.674,18.0414168 17.0766667,17.8774168 C19.6746667,17.7000835 19.9806667,16.1307501 20,12.0000835 C19.9806667,7.87675013 19.6773333,6.30075013 17.0766667,6.12275013 Z M10,14.6667501 L10,9.33341679 L15.3333333,11.9954168 L10,14.6667501 L10,14.6667501 Z" id="path-Youtube"></path></defs><g id="logos/social/youtube" stroke="none" stroke-width="1" fill="none" fill-rule="evenodd"><g id="youtube" fill="none"><polygon id="bounds" points="0 0 24 0 24 24 0 24" fill="none"></polygon><mask id="mask-2" fill="#FFFFFF"><use xlink:href="#path-Youtube" fill="#FFFFFF"></use></mask><use class="black_3d_RE" id="Mask" fill="#1D252C" xlink:href="#path-Youtube"></use></g></g></svg>